<svg width="665" height="250" viewBox="0 0 665 250" fill="none" xmlns="http://www.w3.org/2000/svg">
<path fill-rule="evenodd" clip-rule="evenodd" d="M24.8498 56.2456C13.5146 85.2811 -5.7519 149.837 7.82295 175.868C7.834 175.889 7.85301 175.904 7.87603 175.91L38.3636 184.416C38.3914 184.423 38.42 184.418 38.4419 184.399C44.7857 178.963 58.8798 165.864 64.7858 156.713C70.6996 147.55 85.1519 109.933 91.6478 92.2456C91.6536 92.2297 91.6547 92.2144 91.6508 92.1978C90.9116 89.0653 89.8861 79.8255 91.6565 67.7047C93.4204 55.6281 105.881 20.4431 112.004 4.05165C112.035 3.96791 111.931 3.90603 111.863 3.96405L107.449 7.73088C107.439 7.73961 107.431 7.75005 107.426 7.76244C88.0303 53.6053 48.515 146.16 45.5572 149.784C41.8594 154.314 37.1752 156.713 31.0125 156.713C24.8498 156.713 23.2926 150.217 22.6432 145.544C22.6185 145.366 22.5875 145.167 22.5527 144.944C21.8124 140.188 19.3369 124.284 38.4081 63.7074L39.1897 59.9149C39.2015 59.8579 39.1552 59.8058 39.0973 59.811C35.7027 60.1175 31.8237 60.1424 29.7795 59.1756C27.9921 58.3302 26.5949 56.4189 25.6149 54.5169C25.5799 54.449 25.4802 54.4554 25.4548 54.5274L24.8498 56.2456ZM31.6267 36.9993C31.6225 37.0111 31.621 37.0236 31.6221 37.036C31.6651 37.5013 31.6983 38.0459 31.7341 38.6353C31.926 41.787 32.1958 46.2198 34.4643 46.6525C36.1618 46.9763 39.4132 45.916 42.3061 44.6171C42.3314 44.6057 42.3497 44.5829 42.3553 44.5557L44.9975 31.7359C45.0106 31.6721 44.9512 31.6171 44.8886 31.6348C43.2283 32.1037 41.543 32.4069 40.1364 32.3224C37.5004 32.1641 35.97 29.5471 35.2221 27.2645C35.1961 27.1851 35.083 27.1832 35.0553 27.2621L31.6267 36.9993ZM48.9846 12.2432C48.9998 12.2631 49.0056 12.2886 49.0005 12.3131L48.4419 15.0234C48.4402 15.032 48.4372 15.0401 48.4329 15.0478C46.9178 17.7857 44.8059 21.4891 42.6016 21.0686C40.4305 20.6544 40.4511 17.2004 40.4674 14.4555C40.4689 14.2018 40.4704 13.9541 40.4701 13.7155C40.4701 13.6948 40.4774 13.6747 40.4909 13.659L45.4875 7.82555C45.5233 7.78367 45.5887 7.78554 45.6221 7.8294L48.9846 12.2432ZM36.5223 245.883C36.5087 245.859 36.5069 245.831 36.5173 245.806L99.4918 95.1172C99.4957 95.1078 99.5013 95.0992 99.5082 95.0917L103.183 91.1312C103.197 91.1168 103.214 91.1074 103.234 91.1045C113.032 89.6139 123.631 81.9077 127.815 78.1499C127.862 78.1076 127.934 78.131 127.953 78.1915L130.382 86.0435C130.383 86.0477 130.384 86.052 130.385 86.0564L137.762 135.579C137.775 135.665 137.892 135.68 137.927 135.601L177.676 44.9384C177.718 44.8413 177.862 44.904 177.837 45.007C168.437 83.4125 169.278 101.464 170.903 105.752C170.912 105.776 170.909 105.8 170.897 105.823L162.515 120.965L135.845 178.979C135.835 179 135.817 179.016 135.795 179.024C129.903 181.122 124.504 178.145 122.511 176.371C122.495 176.356 122.486 176.337 122.484 176.316L115.604 106.143C115.595 106.053 115.47 106.036 115.437 106.12L97.5338 151.313C97.5321 151.317 97.5308 151.322 97.5298 151.326L94.0839 166.976C94.0767 167.009 94.0527 167.034 94.0198 167.041C75.873 171.17 49.8554 223.913 39.0367 249.949C39.0092 250.015 38.9198 250.017 38.8838 249.955L36.5223 245.883ZM489.69 52.2377C489.642 52.2377 489.603 52.2765 489.603 52.3243V177.712C489.603 177.76 489.642 177.799 489.69 177.799H508.567C508.615 177.799 508.654 177.76 508.654 177.712V52.3243C508.654 52.2765 508.615 52.2377 508.567 52.2377H489.69ZM615.583 82.4646C615.583 82.4875 615.592 82.5096 615.609 82.5258L625.563 92.48C625.579 92.4962 625.601 92.5053 625.624 92.5053H643.644C643.692 92.5053 643.731 92.4666 643.731 92.4187V85.4211C643.731 85.3981 643.74 85.3761 643.756 85.3599L662.634 66.4823C662.688 66.4277 662.782 66.4663 662.782 66.5435V140.545C662.782 140.555 662.773 140.564 662.762 140.564C662.745 140.564 662.737 140.585 662.749 140.597L662.751 140.598C662.759 140.606 662.759 140.619 662.751 140.627L625.603 177.775C625.587 177.791 625.565 177.8 625.542 177.8H598.845C598.768 177.8 598.729 177.707 598.784 177.652L643.705 132.731C643.722 132.715 643.731 132.693 643.731 132.67V111.643C643.731 111.595 643.692 111.556 643.644 111.556H617.946C617.923 111.556 617.901 111.565 617.885 111.581L617.865 111.601C617.832 111.635 617.777 111.635 617.743 111.601L596.543 90.4019C596.536 90.3943 596.536 90.382 596.543 90.3744L596.555 90.3628C596.563 90.3548 596.557 90.3413 596.546 90.3413C596.539 90.3413 596.534 90.3356 596.534 90.3287V52.3263C596.534 52.2785 596.572 52.2397 596.62 52.2397H615.497C615.545 52.2397 615.583 52.2785 615.583 52.3263V82.4646ZM662.782 53.2712C662.782 53.2942 662.772 53.3162 662.756 53.3325L643.879 72.2101C643.824 72.2646 643.731 72.226 643.731 72.1488V52.3244C643.731 52.2765 643.77 52.2378 643.817 52.2378H662.695C662.743 52.2378 662.782 52.2765 662.782 52.3244V53.2712ZM472.493 158.996C472.493 158.995 472.493 158.994 472.492 158.994H448.094C448.071 158.994 448.049 158.985 448.032 158.969L437.511 148.448C437.478 148.414 437.423 148.414 437.389 148.448L424.002 161.834L400.536 186.154C400.469 186.224 400.549 186.336 400.636 186.293C410.727 181.323 423.163 176.581 440.218 178.069C440.225 178.069 440.229 178.061 440.224 178.057C440.22 178.052 440.223 178.044 440.229 178.044H461.237C461.238 178.044 461.238 178.045 461.238 178.045C461.238 178.046 461.239 178.046 461.239 178.046H480.202C480.25 178.046 480.289 178.007 480.289 177.96V166.791C480.289 166.79 480.289 166.79 480.289 166.79C480.29 166.79 480.29 166.79 480.29 166.79L472.497 158.997C472.497 158.997 472.496 158.997 472.495 158.997C472.495 158.998 472.493 158.998 472.493 158.997V158.996ZM461.447 54.0213C461.447 54.0216 461.447 54.0218 461.447 54.0218H440.4C440.395 54.0218 440.391 54.0198 440.387 54.0163C440.38 54.0091 440.368 54.0091 440.361 54.0163C440.357 54.0198 440.353 54.0218 440.348 54.0218H440.32C440.274 54.0218 440.236 54.0592 440.236 54.1053C440.236 54.1275 440.228 54.1487 440.212 54.1644L416.187 78.1889C416.126 78.2504 416.022 78.1926 416.04 78.1076C417.484 71.4268 416.064 64.687 415.129 62.6303C414.047 60.2495 408.204 49.6459 368.827 48.7759C368.811 48.7755 368.794 48.7705 368.781 48.7614L361.733 44.063C361.692 44.0356 361.637 44.0464 361.612 44.089C360.372 46.1922 358.354 51.044 356.03 59.1081C356.018 59.1498 356.037 59.1943 356.077 59.2118C360.766 61.2663 367.93 66.0149 372.046 68.9374C372.096 68.9728 372.164 68.9452 372.179 68.8858C372.724 66.6818 373.266 65.1259 373.775 64.5774C376.589 61.5466 398.671 64.5774 402.351 72.5873C404.176 76.5606 395.276 83.6247 385.187 89.95C385.152 89.9721 385.137 90.0157 385.152 90.0545C386.587 93.7354 388.439 98.4476 388.715 98.9996C388.88 99.3286 390.19 99.573 391.807 99.7466C391.827 99.7487 391.846 99.7441 391.863 99.7335C400.467 94.2314 409.035 88.3236 413.002 84.1909C413.036 84.1558 413.091 84.1564 413.125 84.1908L415.53 86.596C415.547 86.6123 415.556 86.6343 415.556 86.6572V137.342C415.556 137.346 415.553 137.348 415.55 137.349C415.547 137.349 415.545 137.352 415.545 137.355V156.852C415.545 156.929 415.638 156.968 415.693 156.913L434.58 138.027C434.591 138.016 434.584 137.997 434.568 137.995C434.589 137.995 434.605 137.979 434.605 137.958V86.749C434.605 86.7261 434.615 86.7041 434.631 86.6878L448.221 73.0979C448.237 73.0817 448.259 73.0726 448.282 73.0726H472.706C472.707 73.0726 472.709 73.071 472.709 73.0691C472.709 73.0682 472.709 73.0673 472.71 73.0667L480.498 65.2794C480.499 65.2785 480.499 65.277 480.498 65.2763C480.497 65.2759 480.497 65.2753 480.497 65.2746V54.1074C480.497 54.0596 480.458 54.0208 480.41 54.0208H461.448C461.448 54.0208 461.447 54.021 461.447 54.0213ZM169.105 161.56L191.765 80.631C191.788 80.5507 191.697 80.4862 191.631 80.5372C182.306 87.7409 167.385 97.571 180.795 80.3787C197.681 58.7303 229.504 49.6378 246.823 52.2356C264.142 54.8334 279.945 65.2247 278.43 89.2545C277.219 108.449 249.72 140.321 236.061 153.922C236.026 153.957 235.971 153.953 235.938 153.917L223.078 139.982C223.044 139.945 223.049 139.885 223.09 139.854L226.477 137.314L229.498 135.37C229.502 135.367 229.506 135.364 229.51 135.36L234.046 131.04C234.049 131.038 234.052 131.034 234.054 131.031C247.188 114.143 269.682 78.4729 254.617 70.8534C239.571 63.2439 216.365 72.7028 206.598 78.4061C206.572 78.4216 206.557 78.4475 206.557 78.4783C206.543 82.2693 204.828 90.9952 202.291 101.83C202.283 101.865 202.253 101.892 202.217 101.896C197.662 102.429 192.124 103.644 191.722 105.925C191.254 108.574 195.66 113.76 198.598 116.718C198.62 116.739 198.628 116.77 198.62 116.799C197.935 119.495 197.228 122.235 196.508 124.988C196.496 125.035 196.448 125.063 196.401 125.05C194.133 124.422 191.836 124.052 191.72 124.975C191.55 126.338 193.181 131.025 194.059 133.307C194.078 133.356 194.142 133.363 194.173 133.321C194.216 133.262 194.309 133.306 194.29 133.377C190.908 146.029 187.474 158.286 184.93 167.115C184.918 167.157 184.94 167.202 184.981 167.218L185.964 167.611C185.982 167.618 186 167.62 186.018 167.615C191.706 166.044 201.971 157.254 206.479 152.975C206.52 152.936 206.584 152.949 206.612 152.998L217.558 172.315C217.58 172.354 217.568 172.405 217.53 172.43C195.264 187.327 177.758 189.697 171.27 183.209C166.074 178.013 167.662 166.612 169.105 161.56ZM226.097 164.765C226.064 164.79 226.019 164.788 225.988 164.761L210.311 150.802C210.272 150.767 210.273 150.706 210.313 150.672L217.455 144.58C217.511 144.532 217.605 144.569 217.622 144.641C217.956 146.035 221.618 150.382 224.937 154.324L224.937 154.324C228.002 157.963 230.776 161.256 230.37 161.56L226.097 164.765ZM241.066 163.504C240.989 163.507 240.946 163.424 241 163.369C244.447 159.863 261.408 152.96 269.611 149.891C269.641 149.88 269.66 149.855 269.665 149.824C270.19 146.53 270.722 143.407 271.252 140.433C271.264 140.366 271.346 140.338 271.396 140.385C274.058 142.891 276.496 146.143 277.661 147.914C277.665 147.92 277.67 147.926 277.676 147.931C280.249 150.156 284.301 151.577 286.059 152.024C286.091 152.032 286.114 152.057 286.121 152.089C286.664 154.5 289.07 157.377 290.218 158.527C290.222 158.53 290.225 158.533 290.229 158.535C292.403 160.116 294.211 160.925 295.522 161.302C295.538 161.307 295.552 161.315 295.562 161.327L299.616 165.749C299.666 165.804 299.631 165.894 299.556 165.894C293.639 165.909 281.671 166.616 279.616 169.357C277.568 172.088 269.746 174.762 265.928 175.807C265.858 175.826 265.801 175.755 265.827 175.688C267.46 171.6 266.48 167.491 265.768 165.911C265.763 165.899 265.756 165.89 265.746 165.882C262.628 163.32 248.132 163.226 241.066 163.504ZM284.168 138.409C284.164 138.401 284.158 138.395 284.152 138.39C281.264 136.032 276.318 134.072 272.723 132.892C272.681 132.878 272.657 132.836 272.665 132.793C273.296 129.49 273.913 126.378 274.499 123.419L274.502 123.402C274.71 122.356 274.913 121.33 275.112 120.321C275.124 120.259 275.196 120.23 275.247 120.267C281.657 124.871 286.497 130.406 289.297 134.269C289.311 134.289 289.316 134.313 289.311 134.337C288.812 136.799 288.31 139.258 287.829 141.593C287.821 141.633 287.785 141.662 287.745 141.662C286.47 141.663 285.46 141.553 285.46 141.212C285.46 140.523 284.604 139.063 284.168 138.409ZM286.543 116.533C286.163 115.647 281.514 111.618 277.406 108.191C277.382 108.171 277.371 108.14 277.376 108.11C279.937 92.5997 280.206 80.1666 274.444 61.8398C274.43 61.7975 274.451 61.7512 274.491 61.7335C298.292 51.4001 325.975 46.7154 334.728 46.6116C334.779 46.611 334.815 46.6554 334.809 46.7067C333.735 56.7971 325.154 66.3624 322.128 69.6849C322.087 69.7299 322.015 69.7185 321.979 69.6692C321.531 69.0524 318.595 66.0598 305.594 69.7745C294.986 72.8053 294.986 80.3822 294.986 80.3822L293.602 92.2868C293.598 92.3186 293.577 92.3457 293.547 92.357C292.295 92.8281 290.567 92.7239 288.426 91.1049C288.367 91.06 288.281 91.1027 288.285 91.1769C288.45 93.9074 289.133 99.1399 290.656 99.6475C291.33 99.8722 292.163 99.5381 292.974 98.9814C292.984 98.9743 292.996 98.9694 293.009 98.9673C324.718 93.4688 332.365 96.2618 332.221 98.3504C332.654 106.36 323.995 113.937 320.531 115.453C317.891 116.608 315.958 116.02 315.22 115.525C315.17 115.492 315.174 115.419 315.225 115.386C318.225 113.478 319.972 109.157 320.505 107.114C320.519 107.06 320.478 107.009 320.423 107.008C310.272 106.86 298.322 110.09 293.533 111.751C293.495 111.764 293.474 111.8 293.475 111.84C293.49 112.525 292.973 115.562 292.183 119.756C292.173 119.812 292.112 119.844 292.06 119.819C291.17 119.388 290.327 119.027 290.223 119.131C290.067 119.287 289.899 120.396 289.814 121.088C289.805 121.165 289.709 121.194 289.661 121.133C288.751 119.983 287.038 117.688 286.543 116.533ZM299.748 155.067C297.895 152.451 296.974 150.098 296.564 148.408C296.552 148.358 296.585 148.31 296.635 148.303L301.867 147.522C301.897 147.518 301.926 147.528 301.945 147.551C305.141 151.251 309.601 156.417 312.148 159.37C312.196 159.425 312.156 159.509 312.083 159.511C309.955 159.564 307.897 159.65 305.958 159.758C305.944 159.759 305.93 159.756 305.917 159.75C303.517 158.619 301.168 157.072 299.748 155.067ZM321.354 159.525C321.325 159.525 321.299 159.51 321.284 159.486C318.705 155.383 314.939 149.301 313.046 145.97C313.016 145.917 313.05 145.853 313.11 145.844L315.103 145.546C315.114 145.545 315.124 145.545 315.134 145.547C319.983 146.597 329.649 146.636 338.623 146.343C338.662 146.342 338.696 146.314 338.704 146.275L344.541 119.202C344.549 119.162 344.529 119.121 344.491 119.104L336.888 115.725C336.83 115.699 336.819 115.621 336.867 115.58L346.478 107.464C346.495 107.45 346.505 107.431 346.508 107.41C346.734 105.747 346.963 104.121 347.195 102.53C347.197 102.513 347.204 102.497 347.216 102.485C348.156 101.43 349.184 100.291 349.885 99.5203C349.924 99.4768 349.993 99.4822 350.022 99.5331C352.572 103.971 357.898 112.906 359.273 113.937C360.63 114.954 362.235 114.395 362.911 113.965C362.938 113.948 362.952 113.917 362.949 113.885C361.733 99.7768 356.146 90.4927 353.464 87.5652C353.441 87.5402 353.408 87.5329 353.375 87.5428C352.704 87.7483 351.336 87.8402 350.83 86.66C350.608 86.1403 350.536 84.5147 350.544 82.554C350.544 82.5486 350.545 82.5432 350.546 82.5379C351.307 78.587 352.071 74.9603 352.827 71.6452C352.84 71.5896 352.9 71.5607 352.951 71.5877C357.171 73.847 363.245 78.2618 367.047 84.8944C367.06 84.9158 367.062 84.9415 367.054 84.9648L366.665 86.1323C366.649 86.1823 366.68 86.2354 366.732 86.2449L368.985 86.6546C369.004 86.6581 369.022 86.668 369.035 86.6827L369.073 86.7262C369.09 86.7451 369.097 86.7702 369.094 86.795C368.443 91.5699 367.89 96.2175 367.514 99.7077C367.506 99.7758 367.577 99.8243 367.638 99.7936C370.071 98.5745 372.927 97.0735 375.94 95.3976C375.978 95.3763 376.027 95.387 376.052 95.4225C378.2 98.3824 379.918 101.169 380.051 102.612C380.054 102.652 380.084 102.684 380.123 102.691C381.013 102.841 382.749 103.16 383.086 103.329C383.257 103.414 383.016 104.339 382.641 105.471C382.635 105.491 382.622 105.507 382.604 105.518C379.644 107.332 376.908 108.981 374.626 110.356C374.557 110.397 374.578 110.501 374.656 110.516C379.187 111.389 381.655 112.921 386.553 116.968C403.945 134.182 407.031 138.594 411.673 145.231L411.674 145.231L411.674 145.232C412.69 146.685 413.781 148.244 415.113 150.067C415.123 150.082 415.129 150.1 415.129 150.118V156.581C415.129 156.604 415.12 156.626 415.104 156.642L409.619 162.127C409.581 162.165 409.519 162.161 409.488 162.117C404.902 155.63 397.243 145.339 391.533 139.482C384.806 132.583 369.361 125.54 362.392 122.846C362.345 122.828 362.295 122.855 362.281 122.903L352.801 155.219C352.79 155.258 352.807 155.3 352.842 155.319L354.645 156.321C354.691 156.346 354.704 156.405 354.674 156.447L344.555 170.656C342.823 172.893 339.143 176.891 338.277 174.986C337.586 173.465 337.124 165.492 336.893 159.401C336.89 159.335 336.817 159.297 336.76 159.332L334.63 160.68C334.612 160.692 334.591 160.696 334.57 160.693C330.451 160.017 325.904 159.664 321.354 159.525ZM583.121 52.2385C583.121 52.2377 583.121 52.2371 583.12 52.2371H581.403C581.332 52.2371 581.291 52.1562 581.334 52.099L595.947 32.2995C596.007 32.2176 595.901 32.1167 595.822 32.181L571.234 52.2176C571.219 52.2302 571.199 52.2371 571.18 52.2371H514.366C514.318 52.2371 514.28 52.2758 514.28 52.3237V71.2012C514.28 71.2491 514.318 71.2878 514.366 71.2878H543.199C543.247 71.2878 543.286 71.3266 543.286 71.3744V92.2273C543.286 92.3066 543.383 92.3442 543.436 92.2852L562.335 71.2961C562.336 71.2952 562.336 71.294 562.336 71.2928C562.336 71.29 562.339 71.2878 562.341 71.2878H575.548C575.622 71.2878 575.662 71.3762 575.612 71.432L562.363 86.3191C562.354 86.3297 562.336 86.323 562.336 86.3088C562.336 86.2947 562.319 86.288 562.309 86.2986L543.307 107.651C543.293 107.667 543.286 107.687 543.286 107.708V107.724C543.286 107.745 543.278 107.765 543.264 107.781L516.015 138.399L530.174 124.24C531.198 123.318 532.143 122.461 533.016 121.669L533.019 121.666C538.429 116.756 541.052 114.375 542.324 114.955C542.825 115.184 543.116 115.873 543.285 117.049C543.285 117.053 543.286 117.057 543.286 117.062V177.713C543.286 177.761 543.324 177.8 543.372 177.8H562.25C562.298 177.8 562.336 177.761 562.336 177.713V105.059C562.336 105.058 562.338 105.057 562.339 105.058C562.34 105.059 562.342 105.058 562.342 105.056C562.34 104.935 562.338 104.815 562.336 104.696V98.4744C562.478 93.7636 563.12 91.6817 565.172 89.2419L583.991 70.4233C583.991 70.423 583.991 70.4226 583.991 70.4226C583.99 70.4226 583.99 70.4222 583.99 70.4219L590.917 63.4976C590.918 63.4967 590.917 63.4952 590.916 63.4945C590.916 63.4941 590.915 63.4935 590.915 63.4928V52.3266C590.915 52.2788 590.877 52.24 590.829 52.24H583.123C583.122 52.24 583.121 52.2393 583.121 52.2385Z" fill="#FF0055"/>
<path fill-rule="evenodd" clip-rule="evenodd" d="M26.4207 52.6042C15.0855 81.8061 -4.18106 146.732 9.3939 172.912C9.40492 172.933 9.42391 172.948 9.44695 172.955L39.9343 181.509C39.9622 181.517 39.9909 181.511 40.0129 181.492C46.3567 176.025 60.4507 162.851 66.3567 153.647C72.2705 144.432 86.7229 106.599 93.2188 88.8103C93.2246 88.7944 93.2256 88.7792 93.2217 88.7628C92.4826 85.6125 91.4569 76.3196 93.2274 64.129C94.9913 51.9829 107.452 16.5951 113.575 0.110135C113.606 0.0262994 113.502 -0.0353648 113.434 0.0228827L109.02 3.81145C109.01 3.8202 109.002 3.83064 108.997 3.84302C89.6013 49.9486 50.0859 143.034 47.1281 146.679C43.4303 151.235 38.7461 153.647 32.5834 153.647C26.4207 153.647 24.8635 147.114 24.2141 142.415C24.1894 142.236 24.1584 142.036 24.1236 141.811C23.3833 137.027 20.9078 121.032 39.979 60.1087L40.7602 56.2966C40.7719 56.2397 40.7255 56.1876 40.6676 56.1929C37.2732 56.5011 33.3945 56.5261 31.3504 55.5538C29.5627 54.7035 28.1653 52.7808 27.1852 50.8675C27.1503 50.7994 27.0503 50.8058 27.025 50.8781L26.4207 52.6042ZM33.1975 33.2478C33.1934 33.2596 33.1918 33.272 33.193 33.2844C33.236 33.7524 33.2691 34.3002 33.305 34.8931V34.8931C33.4969 38.0629 33.7667 42.5209 36.0352 42.9561C37.7326 43.2818 40.9842 42.2154 43.8771 40.9091C43.9024 40.8976 43.9205 40.8748 43.9261 40.8476L46.5686 27.953C46.5816 27.8891 46.5222 27.8343 46.4595 27.852C44.7992 28.3236 43.1139 28.6286 41.7072 28.5436C39.0714 28.3844 37.541 25.7526 36.793 23.457C36.7671 23.3775 36.6538 23.3756 36.6261 23.4546L33.1975 33.2478ZM50.5557 8.34982C50.5707 8.36969 50.5765 8.39507 50.5715 8.41949L50.0128 11.1459C50.011 11.1544 50.0081 11.1625 50.0039 11.1701C48.4888 13.9237 46.3768 17.6484 44.1725 17.2255C42.0014 16.8089 42.0219 13.3352 42.0383 10.5746V10.5741V10.5736V10.5731V10.5726V10.5721V10.5716V10.5711V10.5707V10.5702C42.0398 10.3164 42.0413 10.0687 42.041 9.83001C42.0409 9.80938 42.0483 9.78941 42.0616 9.77371L47.0582 3.9068C47.0941 3.86467 47.1597 3.86655 47.1932 3.91066L50.5557 8.34982ZM38.0916 243.331C38.0781 243.307 38.0763 243.279 38.0866 243.254L101.061 91.7012C101.065 91.6918 101.071 91.6832 101.078 91.6757L104.753 87.6924C104.766 87.6779 104.784 87.6684 104.803 87.6655C114.601 86.1664 125.201 78.4164 129.384 74.6369C129.431 74.5944 129.504 74.6178 129.522 74.6785L131.951 82.5756C131.953 82.5798 131.953 82.5841 131.954 82.5884L139.332 132.395C139.344 132.481 139.462 132.496 139.497 132.417L179.245 41.2346C179.288 41.1374 179.432 41.1999 179.407 41.3029C170.006 79.9303 170.848 98.0858 172.472 102.398C172.481 102.422 172.479 102.446 172.466 102.468L164.085 117.697L137.414 176.044C137.405 176.065 137.387 176.081 137.365 176.089C131.472 178.199 126.073 175.205 124.081 173.42C124.065 173.406 124.055 173.387 124.053 173.365L117.173 102.791C117.164 102.7 117.04 102.683 117.006 102.767L99.1033 148.219C99.1016 148.224 99.1003 148.228 99.0993 148.233L95.6534 163.972C95.6461 164.005 95.6222 164.03 95.5894 164.038C77.4425 168.19 51.4251 221.235 40.6063 247.421C40.5788 247.487 40.4891 247.488 40.4532 247.426L38.0916 243.331ZM491.255 48.5767C491.207 48.5767 491.168 48.6155 491.168 48.6633V174.771C491.168 174.819 491.207 174.857 491.255 174.857H510.133C510.18 174.857 510.219 174.819 510.219 174.771V48.6633C510.219 48.6155 510.18 48.5767 510.133 48.5767H491.255ZM617.155 78.975C617.155 78.9979 617.164 79.0198 617.18 79.036L627.132 89.0457C627.148 89.0621 627.17 89.0713 627.193 89.0713H645.215C645.263 89.0713 645.302 89.0325 645.302 88.9847V81.9458C645.302 81.923 645.311 81.901 645.327 81.8848L664.204 62.8988C664.259 62.844 664.352 62.8826 664.352 62.9599V137.386C664.352 137.397 664.343 137.406 664.332 137.406C664.314 137.406 664.305 137.428 664.318 137.441L664.32 137.443C664.328 137.451 664.328 137.465 664.32 137.473L627.175 174.831C627.159 174.847 627.136 174.856 627.113 174.856H600.416C600.339 174.856 600.3 174.763 600.355 174.709L645.276 129.529C645.293 129.513 645.302 129.491 645.302 129.468V108.317C645.302 108.269 645.263 108.23 645.215 108.23H619.521C619.498 108.23 619.476 108.24 619.46 108.256L619.437 108.279C619.404 108.313 619.348 108.313 619.314 108.279L598.116 86.9592C598.108 86.951 598.108 86.9377 598.116 86.9295L598.128 86.9174C598.137 86.9086 598.131 86.8935 598.118 86.8935C598.111 86.8935 598.104 86.8873 598.104 86.8795V48.6608C598.104 48.613 598.143 48.5742 598.191 48.5742H617.069C617.116 48.5742 617.155 48.613 617.155 48.6608V78.975ZM664.352 49.6117C664.352 49.6346 664.343 49.6565 664.327 49.6728L645.45 68.6587C645.395 68.7135 645.302 68.6749 645.302 68.5977V48.6608C645.302 48.613 645.34 48.5742 645.388 48.5742H664.266C664.314 48.5742 664.352 48.613 664.352 48.6608V49.6117ZM474.072 155.971C474.072 155.971 474.072 155.97 474.071 155.97H449.675C449.652 155.97 449.63 155.961 449.613 155.945L439.091 145.362C439.057 145.328 439.002 145.328 438.968 145.362L425.583 158.822C425.582 158.822 425.582 158.822 425.582 158.822C425.581 158.822 425.581 158.822 425.581 158.822L402.114 183.281C402.046 183.351 402.127 183.463 402.214 183.42C412.306 178.421 424.743 173.652 441.801 175.149C441.807 175.15 441.81 175.143 441.806 175.139C441.802 175.136 441.805 175.129 441.81 175.129H474.071C474.072 175.129 474.072 175.129 474.072 175.128C474.072 175.127 474.073 175.126 474.074 175.126H481.782C481.829 175.126 481.868 175.088 481.868 175.04V163.808C481.868 163.808 481.868 163.808 481.869 163.808C481.869 163.808 481.869 163.808 481.869 163.807L481.868 163.806C481.868 163.806 481.868 163.806 481.868 163.806C481.868 163.805 481.868 163.805 481.867 163.805H481.867C481.866 163.805 481.866 163.805 481.866 163.805L474.076 155.971C474.076 155.971 474.075 155.971 474.074 155.971L474.074 155.972C474.074 155.972 474.072 155.972 474.072 155.971ZM474.288 50.4232C474.288 50.4221 474.287 50.4212 474.286 50.4212H442.019C442.007 50.4212 441.995 50.4163 441.986 50.4075C441.968 50.3892 441.938 50.3892 441.92 50.4075C441.911 50.4163 441.899 50.4212 441.887 50.4212H441.88C441.844 50.4212 441.815 50.4501 441.815 50.4855C441.815 50.5025 441.809 50.5188 441.797 50.5309L417.749 74.7168C417.687 74.7785 417.583 74.7207 417.601 74.6356C419.061 67.902 417.637 61.0984 416.7 59.0254C415.618 56.631 409.775 45.9666 370.398 45.0916C370.382 45.0912 370.365 45.0861 370.352 45.0769L363.304 40.3519C363.263 40.3242 363.208 40.3351 363.183 40.3779C361.942 42.4932 359.925 47.3728 357.601 55.483C357.589 55.5247 357.608 55.5691 357.648 55.5866C362.338 57.6535 369.506 62.432 373.621 65.371C373.671 65.4067 373.74 65.379 373.754 65.3194C374.3 63.1014 374.842 61.5354 375.351 60.9836C378.166 57.9355 400.247 60.9836 403.927 69.0393C405.753 73.0359 396.85 80.1418 386.759 86.5039C386.724 86.526 386.709 86.5695 386.724 86.6081C388.159 90.3097 390.01 95.0468 390.286 95.6018C390.451 95.9328 391.762 96.1786 393.38 96.3533C393.399 96.3554 393.419 96.3507 393.436 96.34C402.033 90.8107 410.594 84.8742 414.565 80.7186C414.598 80.6833 414.653 80.6839 414.688 80.7185L417.11 83.1537C417.126 83.17 417.135 83.1919 417.135 83.2148V134.189C417.135 134.192 417.133 134.195 417.129 134.196C417.126 134.196 417.124 134.199 417.124 134.202V153.811C417.124 153.888 417.218 153.927 417.272 153.872L436.185 134.851C436.186 134.851 436.186 134.85 436.185 134.849C436.185 134.849 436.185 134.849 436.185 134.848V83.3066C436.185 83.2837 436.194 83.2617 436.21 83.2455L449.772 69.606C449.789 69.5896 449.811 69.5804 449.834 69.5804H474.284C474.284 69.5804 474.284 69.5807 474.285 69.581C474.285 69.5817 474.286 69.5818 474.286 69.5813L474.287 69.5806C474.287 69.5805 474.287 69.5803 474.287 69.5802L474.288 69.5794C474.288 69.5788 474.288 69.5782 474.289 69.5777L482.076 61.7468C482.076 61.7466 482.076 61.7464 482.077 61.7464C482.078 61.7464 482.078 61.7458 482.078 61.7451V61.7449C482.078 61.7446 482.078 61.7444 482.078 61.7442C482.079 61.7438 482.079 61.7432 482.078 61.7428C482.078 61.7426 482.078 61.7424 482.078 61.7421V50.5117C482.078 50.4639 482.039 50.4252 481.992 50.4252H474.29C474.289 50.4252 474.288 50.4243 474.288 50.4232ZM170.674 158.525L193.335 77.1305C193.357 77.0501 193.266 76.9857 193.201 77.0369C183.876 84.2819 168.955 94.1684 182.365 76.8776C199.251 55.1051 231.074 45.9605 248.393 48.5732C265.711 51.1859 281.515 61.6367 279.999 85.8042C278.789 105.109 251.29 137.163 237.63 150.842C237.595 150.877 237.541 150.874 237.507 150.837L224.647 136.822C224.613 136.785 224.618 136.725 224.659 136.695L228.047 134.139L231.067 132.184C231.072 132.181 231.076 132.178 231.08 132.174L235.615 127.83C235.619 127.827 235.621 127.824 235.624 127.82C248.758 110.836 271.252 74.9608 256.186 67.2976C241.14 59.6445 217.934 69.1577 208.168 74.8938C208.141 74.9093 208.127 74.9352 208.126 74.9658C208.112 78.7784 206.397 87.5548 203.86 98.4519C203.852 98.4874 203.823 98.5143 203.786 98.5186C199.231 99.0543 193.694 100.277 193.291 102.57C192.824 105.235 197.23 110.451 200.168 113.425C200.189 113.447 200.197 113.477 200.19 113.506C199.504 116.218 198.797 118.974 198.078 121.743C198.066 121.79 198.017 121.818 197.97 121.805C195.702 121.174 193.405 120.802 193.29 121.729C193.119 123.1 194.751 127.815 195.628 130.109C195.647 130.158 195.712 130.165 195.743 130.123C195.786 130.064 195.879 130.108 195.86 130.179C192.478 142.904 189.043 155.232 186.499 164.111C186.487 164.154 186.509 164.198 186.551 164.215L187.533 164.61C187.551 164.617 187.57 164.618 187.588 164.613C193.276 163.034 203.54 154.194 208.048 149.89C208.089 149.851 208.154 149.863 208.181 149.913L219.128 169.341C219.15 169.381 219.138 169.431 219.1 169.456C196.834 184.439 179.327 186.822 172.839 180.297C167.644 175.072 169.231 163.605 170.674 158.525ZM227.667 161.748C227.634 161.773 227.588 161.771 227.557 161.743L211.88 147.704C211.841 147.669 211.842 147.608 211.882 147.574L219.024 141.447C219.08 141.399 219.175 141.436 219.192 141.508C219.525 142.91 223.187 147.282 226.507 151.247C229.572 154.907 232.345 158.219 231.94 158.525L227.667 161.748ZM242.636 160.476C242.559 160.479 242.516 160.396 242.57 160.341C246.015 156.816 262.978 149.872 271.182 146.785C271.212 146.774 271.231 146.749 271.236 146.718C271.761 143.406 272.292 140.265 272.823 137.275C272.835 137.207 272.917 137.18 272.966 137.227C275.629 139.747 278.067 143.019 279.231 144.799C279.236 144.806 279.241 144.811 279.247 144.816C281.82 147.055 285.872 148.483 287.63 148.933C287.662 148.941 287.685 148.965 287.692 148.998C288.234 151.422 290.641 154.317 291.789 155.473C291.793 155.476 291.796 155.479 291.8 155.481C293.976 157.072 295.784 157.886 297.096 158.265C297.112 158.269 297.125 158.278 297.136 158.29L301.187 162.734C301.238 162.79 301.203 162.879 301.127 162.88C295.211 162.895 283.242 163.606 281.186 166.363C279.138 169.109 271.317 171.799 267.498 172.849C267.429 172.868 267.371 172.798 267.398 172.731C269.031 168.619 268.051 164.485 267.339 162.897C267.334 162.885 267.327 162.876 267.317 162.867C264.198 160.291 249.702 160.196 242.636 160.476ZM285.739 135.239C285.735 135.232 285.729 135.226 285.723 135.221C282.835 132.849 277.888 130.877 274.293 129.691C274.252 129.677 274.228 129.635 274.236 129.592C274.868 126.262 275.486 123.126 276.073 120.144L276.076 120.131L276.092 120.047C276.293 119.03 276.49 118.03 276.682 117.047C276.695 116.985 276.767 116.957 276.818 116.994C283.228 121.623 288.068 127.191 290.867 131.076C290.881 131.095 290.886 131.119 290.882 131.143C290.383 133.62 289.88 136.093 289.399 138.442C289.391 138.482 289.356 138.511 289.315 138.511C288.04 138.512 287.031 138.401 287.031 138.059C287.031 137.366 286.175 135.898 285.739 135.239ZM288.114 113.239C287.734 112.347 283.084 108.295 278.976 104.848C278.953 104.828 278.942 104.797 278.947 104.767C281.508 89.1666 281.778 76.6617 276.014 58.2285C276.001 58.1863 276.021 58.1401 276.062 58.1225C299.863 47.7297 327.546 43.0181 336.299 42.9137C336.35 42.9131 336.385 42.9575 336.38 43.0088C335.306 53.157 326.725 62.7772 323.699 66.119C323.658 66.1642 323.585 66.1528 323.55 66.1034C323.101 65.4827 320.165 62.4736 307.165 66.2094C296.557 69.2575 296.557 76.8779 296.557 76.8779L295.172 88.8536C295.169 88.8853 295.148 88.9125 295.118 88.9238C293.866 89.3975 292.138 89.2927 289.997 87.6645C289.938 87.6195 289.852 87.6621 289.856 87.7364C290.021 90.4824 290.704 95.7455 292.227 96.256C292.902 96.4825 293.737 96.1447 294.549 95.5829C294.56 95.5758 294.572 95.5708 294.584 95.5686C326.289 90.0398 333.936 92.8486 333.792 94.9491C334.225 103.005 325.566 110.625 322.102 112.149C319.461 113.311 317.528 112.72 316.79 112.222C316.74 112.188 316.744 112.116 316.795 112.083C319.796 110.164 321.543 105.817 322.076 103.762C322.09 103.708 322.049 103.657 321.994 103.656C311.843 103.508 299.892 106.756 295.104 108.426C295.066 108.439 295.045 108.476 295.045 108.516C295.061 109.204 294.544 112.26 293.754 116.48C293.743 116.536 293.682 116.568 293.63 116.543C292.74 116.11 291.898 115.746 291.794 115.851C291.638 116.008 291.47 117.124 291.385 117.82C291.376 117.897 291.279 117.925 291.231 117.865C290.322 116.707 288.609 114.4 288.114 113.239ZM301.319 151.994C299.465 149.361 298.544 146.993 298.134 145.293C298.122 145.243 298.155 145.195 298.205 145.188L303.436 144.403C303.466 144.398 303.495 144.409 303.514 144.432C306.71 148.153 311.17 153.349 313.718 156.319C313.765 156.375 313.725 156.459 313.652 156.461C311.523 156.513 309.464 156.6 307.525 156.709C307.511 156.709 307.496 156.707 307.483 156.7C305.085 155.564 302.738 154.008 301.319 151.994ZM322.924 156.475C322.895 156.474 322.868 156.459 322.853 156.435C320.274 152.308 316.507 146.19 314.615 142.841C314.586 142.788 314.619 142.724 314.679 142.715L316.674 142.416C316.684 142.414 316.695 142.414 316.705 142.417C321.554 143.472 331.22 143.511 340.194 143.217C340.234 143.216 340.267 143.187 340.275 143.149L346.112 115.92C346.12 115.88 346.1 115.84 346.062 115.823L338.458 112.424C338.4 112.398 338.389 112.32 338.438 112.279L348.049 104.116C348.066 104.102 348.076 104.083 348.079 104.062C348.305 102.389 348.534 100.753 348.766 99.1517C348.768 99.135 348.775 99.1194 348.787 99.1067C349.727 98.0461 350.755 96.9013 351.456 96.1257C351.495 96.0819 351.564 96.0873 351.593 96.1385C354.143 100.602 359.469 109.587 360.844 110.624C362.201 111.648 363.806 111.085 364.482 110.652C364.509 110.635 364.523 110.604 364.52 110.573C363.304 96.3838 357.717 87.0465 355.035 84.1022C355.012 84.0769 354.979 84.0696 354.946 84.0797C354.275 84.2862 352.907 84.3785 352.402 83.1917C352.179 82.6691 352.107 81.0342 352.115 79.0622C352.115 79.0569 352.116 79.0515 352.117 79.0462C352.878 75.0726 353.642 71.4251 354.398 68.0909C354.411 68.0352 354.472 68.0063 354.522 68.0334C358.742 70.3057 364.817 74.7458 368.619 81.4163C368.631 81.4376 368.633 81.4632 368.626 81.4865L368.236 82.6617C368.22 82.7116 368.251 82.7647 368.303 82.7741L370.556 83.1862C370.576 83.1898 370.593 83.1997 370.606 83.2145L370.649 83.2639C370.665 83.2827 370.673 83.3077 370.669 83.3325C370.019 88.1333 369.466 92.806 369.09 96.3151C369.083 96.3833 369.154 96.4317 369.215 96.4009C371.646 95.1753 374.501 93.6665 377.513 91.9819C377.551 91.9605 377.6 91.9712 377.626 92.0069C379.772 94.983 381.489 97.7843 381.622 99.2353C381.625 99.2755 381.655 99.3077 381.694 99.3144C382.584 99.465 384.32 99.7864 384.658 99.9562C384.828 100.042 384.587 100.973 384.212 102.112C384.205 102.132 384.192 102.149 384.175 102.159C381.214 103.984 378.478 105.642 376.195 107.025C376.127 107.066 376.147 107.17 376.226 107.185C380.757 108.063 383.225 109.604 388.124 113.674C405.516 130.987 408.602 135.425 413.244 142.099C414.261 143.56 415.352 145.129 416.684 146.964C416.694 146.978 416.7 146.996 416.7 147.015V153.516C416.7 153.538 416.691 153.56 416.675 153.577L411.191 159.093C411.153 159.131 411.09 159.127 411.059 159.083C406.473 152.559 398.813 142.208 393.103 136.318C386.377 129.379 370.932 122.296 363.963 119.586C363.916 119.568 363.866 119.595 363.852 119.644L354.372 152.146C354.361 152.184 354.378 152.226 354.413 152.246L356.217 153.254C356.262 153.279 356.275 153.337 356.245 153.379L346.126 167.67C344.394 169.92 340.714 173.941 339.848 172.025C339.157 170.495 338.695 162.475 338.464 156.35C338.461 156.283 338.387 156.245 338.331 156.281L336.201 157.636C336.183 157.648 336.162 157.652 336.141 157.649C332.022 156.969 327.473 156.614 322.924 156.475ZM592.485 48.6606C592.485 48.6127 592.446 48.574 592.398 48.574H582.972C582.901 48.574 582.861 48.4933 582.903 48.4361L597.518 28.5205C597.578 28.4384 597.472 28.3377 597.393 28.4023L572.803 48.5543C572.787 48.567 572.768 48.574 572.748 48.574H563.905C563.905 48.574 563.905 48.5737 563.905 48.5735C563.905 48.5732 563.905 48.573 563.904 48.573H544.855C544.854 48.573 544.854 48.5732 544.854 48.5735C544.854 48.5737 544.854 48.574 544.854 48.574H515.936C515.888 48.574 515.849 48.6127 515.849 48.6606V67.6475C515.849 67.6953 515.888 67.7341 515.936 67.7341H544.768C544.815 67.7341 544.854 67.7729 544.854 67.8207V88.8005C544.854 88.88 544.952 88.9175 545.005 88.8583L563.902 67.7506C563.904 67.7488 563.905 67.7464 563.905 67.744C563.905 67.7385 563.909 67.7341 563.915 67.7341H577.114C577.189 67.7341 577.228 67.8222 577.179 67.8781L563.931 82.8494C563.922 82.8596 563.905 82.8532 563.905 82.8396C563.905 82.826 563.888 82.8196 563.879 82.8298L544.876 104.304C544.862 104.32 544.854 104.341 544.854 104.362V104.375C544.854 104.396 544.846 104.417 544.832 104.433L517.58 135.23L531.705 121.024C532.743 120.084 533.701 119.21 534.585 118.404L534.593 118.397C539.995 113.466 542.617 111.072 543.889 111.65C544.394 111.879 544.685 112.576 544.854 113.767V174.767C544.854 174.814 544.893 174.853 544.941 174.853H563.818C563.866 174.853 563.905 174.814 563.905 174.767V101.699C563.905 101.697 563.907 101.696 563.909 101.697C563.91 101.698 563.913 101.697 563.913 101.695L563.905 101.172V95.1579C564.042 90.338 564.687 88.2372 566.776 85.7527L572.396 80.1003L572.566 79.9346C572.566 79.934 572.565 79.9331 572.565 79.9335C572.564 79.934 572.563 79.9331 572.564 79.9325L585.555 66.866L592.486 59.896C592.487 59.8951 592.487 59.8936 592.486 59.8929C592.485 59.8925 592.485 59.8919 592.485 59.8912V48.6606Z" fill="#FFBF00"/>
<path fill-rule="evenodd" clip-rule="evenodd" d="M21.6903 56.2455C10.3551 85.281 -8.91148 149.837 4.66337 175.868C4.67443 175.889 4.69343 175.904 4.71646 175.91L35.204 184.415C35.2318 184.423 35.2604 184.418 35.2823 184.399C41.6261 178.963 55.7202 165.864 61.6262 156.713C67.54 147.55 81.9923 109.933 88.4882 92.2456C88.4941 92.2296 88.4951 92.2143 88.4912 92.1978C87.752 89.0652 86.7265 79.8254 88.4969 67.7047C90.2608 55.6281 102.721 20.443 108.844 4.05159C108.875 3.96785 108.771 3.90597 108.703 3.96399L104.29 7.73082C104.28 7.73955 104.272 7.74999 104.266 7.76238C84.8708 53.6052 45.3555 146.16 42.3976 149.784C38.6998 154.314 34.0156 156.713 27.8529 156.713C21.6903 156.713 20.1331 150.217 19.4836 145.544C19.4589 145.366 19.4279 145.167 19.3931 144.944C18.6528 140.188 16.1773 124.283 35.2485 63.7073L36.0301 59.9149C36.0419 59.858 35.9956 59.8058 35.9377 59.811C32.5434 60.1174 28.6652 60.1422 26.6213 59.1755C24.8334 58.3299 23.436 56.4178 22.4558 54.5152C22.4209 54.4473 22.3212 54.4538 22.2958 54.5258L21.6903 56.2455ZM28.4683 36.9958C28.4641 37.0076 28.4626 37.0201 28.4637 37.0326C28.5069 37.4986 28.5401 38.0445 28.5761 38.6354C28.7679 41.7872 29.0378 46.2199 31.3063 46.6527C33.0034 46.9764 36.2539 45.9166 39.1463 44.618C39.1716 44.6067 39.1899 44.5838 39.1955 44.5566L41.8382 31.7344C41.8513 31.6706 41.792 31.6156 41.7293 31.6333C40.0689 32.1022 38.3835 32.4055 36.9768 32.321C34.3411 32.1627 32.8107 29.5462 32.0627 27.2638C32.0367 27.1844 31.9237 27.1825 31.8959 27.2613L28.4683 36.9958ZM45.825 12.2431C45.8402 12.263 45.846 12.2885 45.8409 12.3131L45.2828 15.0211C45.281 15.0297 45.2781 15.0378 45.2738 15.0455C43.7587 17.7835 41.6465 21.4877 39.442 21.0672C37.2709 20.653 37.2915 17.199 37.3078 14.4541V14.4536V14.4532V14.4528V14.4523V14.4519V14.4515V14.4511V14.4507V14.4503C37.3093 14.1984 37.3108 13.9525 37.3105 13.7154C37.3105 13.6947 37.3179 13.6747 37.3313 13.6589L42.3279 7.82549C42.3638 7.7836 42.4291 7.78548 42.4626 7.82934L45.825 12.2431ZM33.3572 245.883C33.3436 245.859 33.3418 245.831 33.3522 245.806L96.3267 95.1172C96.3307 95.1078 96.3362 95.0991 96.3432 95.0917L100.018 91.1311C100.032 91.1167 100.049 91.1073 100.069 91.1044C109.867 89.6138 120.466 81.9077 124.65 78.1499C124.697 78.1076 124.769 78.1309 124.788 78.1914L127.217 86.0435C127.218 86.0477 127.219 86.0519 127.22 86.0563L134.597 135.579C134.61 135.665 134.727 135.68 134.762 135.601L174.511 44.9383C174.553 44.8413 174.697 44.904 174.672 45.0069C165.271 83.4125 166.113 101.464 167.738 105.752C167.747 105.776 167.744 105.8 167.731 105.823L159.35 120.965L132.68 178.979C132.67 179 132.652 179.016 132.63 179.024C126.738 181.122 121.339 178.145 119.346 176.371C119.33 176.356 119.321 176.337 119.319 176.316L112.438 106.143C112.43 106.053 112.305 106.036 112.272 106.12L94.3687 151.313C94.367 151.317 94.3657 151.322 94.3647 151.326L90.9188 166.976C90.9116 167.009 90.8876 167.034 90.8548 167.041C72.7079 171.17 46.6904 223.913 35.8716 249.949C35.8441 250.015 35.7547 250.017 35.7187 249.955L33.3572 245.883ZM486.519 52.2377C486.471 52.2377 486.432 52.2764 486.432 52.3243V177.712C486.432 177.76 486.471 177.799 486.519 177.799H505.397C505.444 177.799 505.483 177.76 505.483 177.712V52.3243C505.483 52.2765 505.444 52.2377 505.397 52.2377H486.519ZM612.435 82.4626C612.435 82.4855 612.444 82.5076 612.461 82.5238L622.418 92.4809C622.434 92.4971 622.456 92.5062 622.479 92.5062H640.495C640.543 92.5062 640.582 92.4675 640.582 92.4197V85.421C640.582 85.3981 640.591 85.376 640.607 85.3598L659.485 66.4822C659.539 66.4277 659.632 66.4663 659.632 66.5434V140.544C659.632 140.555 659.624 140.564 659.613 140.564C659.595 140.564 659.586 140.585 659.599 140.598L659.6 140.599C659.608 140.607 659.608 140.62 659.6 140.628L622.454 177.775C622.437 177.791 622.415 177.8 622.392 177.8H595.696C595.619 177.8 595.58 177.707 595.635 177.652L640.556 132.731C640.573 132.715 640.582 132.693 640.582 132.67V111.644C640.582 111.596 640.543 111.557 640.495 111.557H614.797C614.774 111.557 614.752 111.566 614.736 111.582L614.718 111.6C614.684 111.634 614.629 111.634 614.596 111.6L593.396 90.4011C593.389 90.3934 593.389 90.3808 593.396 90.3731L593.407 90.3622C593.416 90.3537 593.41 90.3393 593.398 90.3393C593.39 90.3393 593.384 90.3332 593.384 90.3258V52.3253C593.384 52.2774 593.423 52.2387 593.471 52.2387H612.349C612.396 52.2387 612.435 52.2774 612.435 52.3253V82.4626ZM659.632 53.2702C659.632 53.2932 659.623 53.3152 659.607 53.3314L640.729 72.209C640.675 72.2636 640.582 72.2249 640.582 72.1478V52.3243C640.582 52.2765 640.62 52.2377 640.668 52.2377H659.546C659.594 52.2377 659.632 52.2765 659.632 52.3243V53.2702ZM469.335 159.112C469.335 159.111 469.334 159.111 469.334 159.111H444.932C444.909 159.111 444.887 159.102 444.871 159.085L434.352 148.566C434.318 148.533 434.263 148.533 434.229 148.566L420.845 161.951C420.845 161.951 420.844 161.951 420.843 161.951C420.843 161.95 420.842 161.95 420.841 161.951L397.377 186.269C397.309 186.339 397.389 186.451 397.476 186.408C407.568 181.438 420.004 176.696 437.06 178.184C437.066 178.185 437.07 178.177 437.066 178.173C437.061 178.169 437.064 178.161 437.07 178.161H477.044C477.092 178.161 477.13 178.123 477.13 178.075V166.905C477.13 166.905 477.13 166.905 477.13 166.905C477.13 166.905 477.129 166.905 477.129 166.904L469.337 159.112C469.337 159.112 469.336 159.112 469.336 159.112C469.335 159.113 469.335 159.112 469.335 159.112V159.112ZM458.29 54.1366C458.29 54.1368 458.289 54.1371 458.289 54.1371H437.242C437.237 54.1371 437.232 54.1351 437.229 54.1316C437.221 54.1244 437.21 54.1244 437.202 54.1316C437.199 54.1351 437.194 54.1371 437.189 54.1371H437.162C437.115 54.1371 437.077 54.1751 437.077 54.222C437.077 54.2445 437.068 54.2661 437.052 54.282L412.991 78.3426C412.93 78.4042 412.825 78.3457 412.844 78.2606C414.343 71.53 412.909 64.7027 411.967 62.6303C410.885 60.2495 405.042 49.6458 365.665 48.7758C365.649 48.7755 365.632 48.7704 365.618 48.7613L358.571 44.063C358.53 44.0356 358.475 44.0464 358.45 44.089C357.209 46.1921 355.192 51.0438 352.868 59.1077C352.856 59.1495 352.875 59.194 352.915 59.2114C357.605 61.2668 364.774 66.0183 368.888 68.9405C368.938 68.9759 369.007 68.9483 369.021 68.8889C369.567 66.684 370.109 65.1274 370.618 64.5787C373.432 61.5479 395.514 64.5787 399.194 72.5886C401.02 76.5624 392.117 83.6278 382.026 89.9537C381.991 89.9758 381.976 90.0194 381.991 90.0581C383.426 93.7385 385.277 98.4474 385.553 98.9992C385.717 99.3283 387.028 99.5727 388.645 99.7463C388.665 99.7484 388.684 99.7438 388.701 99.7332C397.266 94.256 405.796 88.3769 409.786 84.2471C409.82 84.2122 409.874 84.2128 409.909 84.2471L412.372 86.7103C412.388 86.7266 412.397 86.7486 412.397 86.7716V137.456C412.397 137.459 412.395 137.462 412.392 137.462C412.389 137.463 412.387 137.465 412.387 137.468V156.966C412.387 157.043 412.481 157.082 412.535 157.027L431.448 138.113C431.449 138.113 431.449 138.112 431.448 138.112C431.448 138.112 431.448 138.112 431.448 138.111V86.8643C431.448 86.8414 431.457 86.8193 431.473 86.8031L445.063 73.2132C445.079 73.197 445.101 73.1878 445.124 73.1878H469.546C469.548 73.1878 469.549 73.1863 469.549 73.1844C469.549 73.1835 469.55 73.1826 469.55 73.1819L477.339 65.3941C477.339 65.394 477.34 65.3939 477.34 65.3939C477.34 65.3939 477.34 65.3936 477.34 65.3932V54.2227C477.34 54.1748 477.302 54.1361 477.254 54.1361H458.29C458.29 54.1361 458.29 54.1363 458.29 54.1366ZM165.936 161.563L188.596 80.6337C188.618 80.5534 188.528 80.4889 188.462 80.5399C179.137 87.7436 164.216 97.5737 177.626 80.3814C194.512 58.733 226.335 49.6405 243.654 52.2383C260.973 54.8361 276.776 65.2274 275.261 89.2572C274.05 108.452 246.551 140.324 232.891 153.925C232.857 153.959 232.802 153.956 232.769 153.92L219.909 139.985C219.874 139.947 219.88 139.888 219.921 139.857L223.308 137.317L226.328 135.373C226.333 135.37 226.337 135.367 226.341 135.363L230.877 131.043C230.88 131.04 230.883 131.037 230.885 131.034C244.019 114.146 266.513 78.4756 251.447 70.8561C236.401 63.2466 213.195 72.7054 203.429 78.4088C203.403 78.4243 203.388 78.4502 203.388 78.481C203.373 82.272 201.659 90.9979 199.122 101.832C199.114 101.868 199.084 101.895 199.048 101.899C194.492 102.432 188.955 103.647 188.552 105.928C188.085 108.577 192.491 113.763 195.429 116.72C195.45 116.742 195.458 116.773 195.451 116.802C194.766 119.498 194.059 122.238 193.339 124.991C193.327 125.037 193.279 125.065 193.232 125.052C190.964 124.425 188.666 124.055 188.551 124.978C188.381 126.341 190.012 131.028 190.89 133.31C190.908 133.358 190.973 133.365 191.004 133.323C191.047 133.264 191.14 133.309 191.121 133.38C187.739 146.032 184.305 158.289 181.761 167.117C181.749 167.16 181.771 167.204 181.812 167.221L182.795 167.614C182.812 167.621 182.831 167.622 182.849 167.617C188.537 166.047 198.801 157.257 203.31 152.978C203.351 152.939 203.415 152.951 203.443 153L214.389 172.317C214.411 172.357 214.399 172.407 214.361 172.433C192.095 187.33 174.589 189.7 168.101 183.212C162.905 178.016 164.493 166.614 165.936 161.563ZM222.928 164.768C222.895 164.793 222.849 164.791 222.819 164.763L207.142 150.805C207.103 150.77 207.104 150.709 207.144 150.674L214.286 144.583C214.342 144.535 214.436 144.572 214.453 144.644C214.787 146.038 218.448 150.385 221.768 154.326L221.768 154.327C224.833 157.966 227.607 161.259 227.201 161.563L222.928 164.768ZM237.903 163.504C237.827 163.507 237.784 163.424 237.838 163.369C241.284 159.863 258.246 152.96 266.449 149.891C266.478 149.88 266.498 149.855 266.503 149.824C267.028 146.53 267.559 143.407 268.09 140.433C268.102 140.366 268.184 140.338 268.233 140.385C270.896 142.891 273.334 146.143 274.498 147.914C274.503 147.92 274.508 147.926 274.514 147.931C277.087 150.156 281.138 151.576 282.897 152.024C282.929 152.032 282.952 152.057 282.959 152.089C283.501 154.5 285.908 157.377 287.056 158.527C287.059 158.53 287.063 158.533 287.066 158.535C289.241 160.116 291.049 160.925 292.36 161.302C292.376 161.307 292.389 161.315 292.4 161.327L296.453 165.748C296.504 165.804 296.469 165.894 296.393 165.894C290.477 165.909 278.509 166.616 276.453 169.357C274.405 172.088 266.584 174.762 262.765 175.807C262.696 175.826 262.638 175.755 262.665 175.688C264.297 171.6 263.318 167.491 262.606 165.911C262.601 165.899 262.594 165.89 262.584 165.882C259.465 163.32 244.97 163.226 237.903 163.504ZM281.006 138.409C281.001 138.401 280.996 138.395 280.989 138.39C278.102 136.032 273.156 134.071 269.56 132.892C269.519 132.878 269.495 132.836 269.503 132.793C270.133 129.494 270.749 126.386 271.334 123.43L271.339 123.406L271.34 123.402L271.346 123.374C271.551 122.338 271.752 121.321 271.95 120.321C271.962 120.259 272.034 120.23 272.085 120.267C278.495 124.87 283.335 130.406 286.134 134.269C286.148 134.289 286.153 134.313 286.149 134.336C285.65 136.799 285.147 139.258 284.667 141.593C284.659 141.633 284.623 141.662 284.582 141.662C283.307 141.663 282.298 141.553 282.298 141.212C282.298 140.523 281.441 139.063 281.006 138.409ZM283.381 116.533C283.001 115.647 278.351 111.618 274.244 108.191C274.22 108.171 274.209 108.14 274.214 108.11C276.775 92.5996 277.044 80.1665 271.281 61.8397C271.268 61.7974 271.288 61.7511 271.329 61.7335C295.13 51.4 322.812 46.7154 331.566 46.6115C331.617 46.6109 331.652 46.6554 331.647 46.7066C330.573 56.797 321.991 66.3623 318.966 69.6848C318.925 69.7298 318.852 69.7184 318.817 69.6692C318.369 69.0524 315.433 66.0597 302.431 69.7744C291.824 72.8052 291.824 80.3822 291.824 80.3822L290.439 92.2867C290.436 92.3185 290.415 92.3457 290.385 92.3569C289.133 92.8281 287.405 92.7239 285.264 91.1048C285.204 91.0599 285.118 91.1026 285.123 91.1769C285.288 93.9073 285.971 99.1398 287.493 99.6474C288.167 99.8722 289.001 99.538 289.811 98.9814C289.822 98.9743 289.834 98.9693 289.846 98.9672C321.555 93.4688 329.203 96.2617 329.059 98.3503C329.492 106.36 320.833 113.937 317.369 115.453C314.729 116.608 312.796 116.02 312.058 115.525C312.007 115.492 312.012 115.419 312.063 115.386C315.063 113.478 316.809 109.157 317.342 107.113C317.356 107.06 317.316 107.009 317.26 107.008C307.11 106.86 295.159 110.09 290.371 111.751C290.333 111.764 290.311 111.8 290.312 111.84C290.327 112.525 289.811 115.562 289.021 119.756C289.011 119.812 288.949 119.843 288.898 119.819C288.008 119.388 287.165 119.027 287.061 119.131C286.904 119.287 286.736 120.396 286.652 121.088C286.643 121.165 286.546 121.194 286.498 121.133C285.589 119.983 283.875 117.688 283.381 116.533ZM296.586 155.067C294.733 152.451 293.812 150.098 293.402 148.408C293.39 148.358 293.423 148.31 293.473 148.303L298.705 147.522C298.734 147.517 298.764 147.528 298.783 147.551C301.979 151.251 306.439 156.417 308.986 159.37C309.033 159.425 308.994 159.509 308.921 159.511C306.792 159.564 304.734 159.65 302.796 159.758C302.782 159.758 302.768 159.756 302.755 159.75C300.355 158.619 298.006 157.072 296.586 155.067ZM318.192 159.525C318.163 159.525 318.137 159.51 318.121 159.485C315.543 155.383 311.776 149.301 309.884 145.97C309.854 145.917 309.887 145.853 309.947 145.844L311.941 145.546C311.951 145.545 311.961 145.545 311.972 145.547C316.82 146.597 326.486 146.636 335.46 146.343C335.5 146.342 335.534 146.314 335.542 146.275L341.378 119.202C341.387 119.161 341.366 119.121 341.329 119.104L333.726 115.725C333.667 115.699 333.656 115.621 333.705 115.58L343.316 107.464C343.332 107.45 343.343 107.431 343.346 107.41C343.572 105.747 343.801 104.121 344.032 102.529C344.035 102.513 344.042 102.497 344.053 102.484C344.994 101.43 346.022 100.291 346.722 99.52C346.762 99.4765 346.831 99.4818 346.86 99.5328C349.409 103.971 354.736 112.905 356.111 113.937C357.467 114.954 359.073 114.394 359.749 113.964C359.776 113.947 359.79 113.917 359.787 113.885C358.571 99.7765 352.983 90.4924 350.302 87.5649C350.279 87.5398 350.245 87.5325 350.213 87.5425C349.542 87.7479 348.174 87.8399 347.668 86.6596C347.445 86.1399 347.374 84.5142 347.382 82.5532C347.382 82.5479 347.383 82.5424 347.384 82.5372C348.144 78.5864 348.909 74.9598 349.665 71.6448C349.677 71.5892 349.738 71.5604 349.788 71.5873C354.008 73.8466 360.083 78.2614 363.885 84.8941C363.897 84.9154 363.9 84.9411 363.892 84.9645L363.503 86.1319C363.486 86.1819 363.518 86.2351 363.57 86.2445L365.823 86.6542C365.842 86.6577 365.86 86.6676 365.873 86.6824L365.916 86.7314C365.932 86.7502 365.94 86.7753 365.936 86.8002C365.285 91.5737 364.733 96.2197 364.357 99.709C364.349 99.7771 364.42 99.8256 364.481 99.7949C366.913 98.5762 369.768 97.0758 372.78 95.4006C372.819 95.3793 372.867 95.39 372.893 95.4255C375.039 98.3841 376.755 101.169 376.888 102.612C376.892 102.652 376.921 102.684 376.961 102.691C377.851 102.841 379.587 103.16 379.924 103.329C380.094 103.414 379.854 104.339 379.479 105.471C379.472 105.491 379.459 105.507 379.442 105.518C376.482 107.332 373.746 108.981 371.463 110.356C371.395 110.397 371.415 110.501 371.494 110.516C376.025 111.389 378.493 112.921 383.391 116.968C400.783 134.182 403.869 138.594 408.511 145.23L408.511 145.231L408.512 145.232C409.528 146.684 410.619 148.244 411.95 150.067C411.961 150.082 411.967 150.1 411.967 150.118V156.58C411.967 156.603 411.958 156.625 411.942 156.641L406.456 162.126C406.418 162.164 406.356 162.16 406.325 162.116C401.739 155.63 394.08 145.338 388.37 139.482C381.643 132.583 366.198 125.54 359.23 122.846C359.182 122.827 359.133 122.855 359.118 122.903L349.639 155.219C349.628 155.258 349.645 155.3 349.68 155.319L351.483 156.321C351.528 156.346 351.542 156.405 351.512 156.447L341.393 170.656C339.661 172.893 335.981 176.891 335.115 174.986C334.423 173.464 333.962 165.491 333.731 159.401C333.728 159.334 333.654 159.297 333.598 159.332L331.468 160.68C331.45 160.692 331.429 160.696 331.408 160.693C327.289 160.017 322.741 159.664 318.192 159.525ZM579.961 52.2398C579.961 52.2396 579.96 52.2393 579.96 52.2393H578.238C578.167 52.2393 578.126 52.1585 578.168 52.1013L592.781 32.3008C592.841 32.2189 592.735 32.118 592.657 32.1823L568.067 52.2199C568.052 52.2325 568.033 52.2393 568.013 52.2393H511.205C511.158 52.2393 511.119 52.2781 511.119 52.3259V71.2035C511.119 71.2514 511.158 71.2901 511.205 71.2901H540.037C540.085 71.2901 540.124 71.3289 540.124 71.3767V92.2267C540.124 92.306 540.221 92.3436 540.275 92.2846L559.174 71.2948C559.174 71.2943 559.174 71.2937 559.174 71.293C559.174 71.2914 559.176 71.2901 559.177 71.2901H572.379C572.454 71.2901 572.493 71.3785 572.444 71.4343L559.202 86.3128C559.192 86.3237 559.174 86.3169 559.174 86.3023C559.174 86.2878 559.156 86.281 559.147 86.2918L540.146 107.643C540.131 107.659 540.124 107.68 540.124 107.701V107.718C540.124 107.739 540.116 107.76 540.102 107.776L512.849 138.4L527.005 124.242C528.03 123.32 528.976 122.462 529.849 121.669C535.262 116.757 537.886 114.374 539.158 114.955C539.664 115.187 539.956 115.889 540.124 117.088V177.714C540.124 177.762 540.162 177.801 540.21 177.801H559.088C559.136 177.801 559.174 177.762 559.174 177.714V105.06C559.174 105.058 559.177 105.057 559.178 105.058C559.18 105.059 559.182 105.058 559.182 105.056L559.174 104.535V98.5567C559.312 93.7538 559.959 91.6669 562.059 89.1895L567.579 83.669C567.662 83.5879 567.747 83.5056 567.832 83.4226C567.833 83.4216 567.831 83.42 567.83 83.4208C567.829 83.4216 567.828 83.42 567.829 83.419L579.957 71.2907C579.957 71.2904 579.958 71.2901 579.958 71.2901H579.96C579.96 71.2901 579.961 71.2899 579.961 71.2897C579.961 71.2892 579.961 71.2891 579.961 71.2894L579.962 71.2903C579.962 71.2907 579.963 71.2908 579.963 71.2904L587.755 63.4988C587.755 63.4984 587.755 63.4978 587.755 63.4974C587.755 63.4973 587.755 63.497 587.755 63.4968V52.3269C587.755 52.2791 587.716 52.2403 587.668 52.2403H579.961C579.961 52.2403 579.961 52.2401 579.961 52.2398Z" fill="#008CFF"/>
<path fill-rule="evenodd" clip-rule="evenodd" d="M23.2721 54.3877C11.9369 83.4232 -7.32963 147.979 6.24522 174.01C6.25627 174.031 6.27528 174.046 6.29831 174.052L36.7859 182.558C36.8137 182.565 36.8423 182.56 36.8642 182.541C43.2079 177.105 57.3021 164.006 63.208 154.855C69.1219 145.692 83.5741 108.075 90.07 90.3877C90.0759 90.3718 90.0769 90.3565 90.073 90.34C89.3339 87.2074 88.3083 77.9676 90.0787 65.8469C91.8427 53.7703 104.303 18.5852 110.426 2.19377C110.457 2.11003 110.353 2.04815 110.285 2.10617L105.872 5.873C105.861 5.88173 105.854 5.89217 105.848 5.90456C86.4526 51.7474 46.9373 144.302 43.9795 147.926C40.2817 152.457 35.5974 154.855 29.4348 154.855C23.2721 154.855 21.7149 148.359 21.0655 143.686C21.0407 143.508 21.0098 143.309 20.975 143.086C20.2347 138.33 17.7591 122.426 36.8304 61.8495L37.612 58.0571C37.6237 58.0001 37.5774 57.948 37.5195 57.9532C34.1249 58.2597 30.2459 58.2846 28.2016 57.3178C26.4143 56.4725 25.0171 54.5613 24.037 52.6593C24.002 52.5914 23.9024 52.5978 23.877 52.6698L23.2721 54.3877ZM30.049 35.1412C30.0449 35.153 30.0433 35.1655 30.0445 35.1779C30.0875 35.6432 30.1206 36.1878 30.1565 36.7772C30.3483 39.9289 30.6182 44.3617 32.8867 44.7944C34.5841 45.1182 37.8356 44.0579 40.7284 42.759C40.7537 42.7477 40.772 42.7248 40.7776 42.6976L43.42 29.8766C43.4332 29.8128 43.3738 29.7578 43.3111 29.7755C41.6507 30.2444 39.9651 30.5478 38.5584 30.4633C35.9228 30.305 34.3925 27.6888 33.6444 25.4064C33.6184 25.327 33.5054 25.3251 33.4776 25.4039L30.049 35.1412ZM47.4069 10.3853C47.422 10.4052 47.4278 10.4307 47.4228 10.4552L46.8648 13.1627C46.863 13.1713 46.86 13.1794 46.8558 13.1871C45.3406 15.9251 43.2283 19.63 41.0236 19.2094C38.8525 18.7953 38.8731 15.3413 38.8894 12.5964V12.5959V12.5955V12.595V12.5946V12.5942V12.5938V12.5934V12.593V12.5926C38.8909 12.3407 38.8924 12.0949 38.8921 11.8579C38.8921 11.8372 38.8995 11.8172 38.9129 11.8014L43.9098 5.96767C43.9456 5.92579 44.011 5.92766 44.0444 5.97152L47.4069 10.3853ZM34.9418 244.026C34.9282 244.003 34.9264 243.974 34.9368 243.95L97.9113 93.2607C97.9153 93.2513 97.9208 93.2427 97.9277 93.2352L101.603 89.2747C101.616 89.2603 101.634 89.2509 101.653 89.248C111.451 87.7574 122.051 80.0512 126.234 76.2934C126.282 76.2511 126.354 76.2745 126.372 76.335L128.801 84.187C128.803 84.1912 128.803 84.1955 128.804 84.1999L136.182 133.722C136.195 133.808 136.312 133.824 136.347 133.744L176.095 43.0819C176.138 42.9848 176.282 43.0475 176.257 43.1505C166.856 81.556 167.698 99.6079 169.322 103.896C169.331 103.92 169.328 103.944 169.316 103.966L160.935 119.108L134.264 177.122C134.255 177.143 134.237 177.16 134.215 177.168C128.322 179.265 122.924 176.289 120.931 174.514C120.915 174.5 120.905 174.481 120.903 174.459L114.023 104.287C114.014 104.197 113.89 104.179 113.856 104.264L95.9533 149.457C95.9516 149.461 95.9503 149.465 95.9493 149.47L92.5034 165.119C92.4962 165.152 92.4722 165.177 92.4394 165.185C74.2925 169.313 48.275 222.056 37.4562 248.093C37.4287 248.159 37.3393 248.16 37.3033 248.098L34.9418 244.026ZM488.1 50.3812C488.052 50.3812 488.013 50.42 488.013 50.4678V175.856C488.013 175.904 488.052 175.942 488.1 175.942H506.977C507.025 175.942 507.064 175.904 507.064 175.856V50.4678C507.064 50.42 507.025 50.3812 506.977 50.3812H488.1ZM614.016 80.6067C614.016 80.6297 614.025 80.6517 614.041 80.6679L623.996 90.6231C624.013 90.6393 624.035 90.6484 624.058 90.6484H642.073C642.121 90.6484 642.159 90.6097 642.159 90.5618V83.5681C642.159 83.5451 642.169 83.5231 642.185 83.5069L661.062 64.6293C661.117 64.5747 661.21 64.6133 661.21 64.6905V138.688C661.21 138.699 661.202 138.707 661.192 138.707C661.175 138.707 661.167 138.727 661.178 138.739L661.181 138.742C661.189 138.749 661.189 138.762 661.181 138.77L624.033 175.918C624.017 175.934 623.995 175.943 623.972 175.943H597.276C597.199 175.943 597.16 175.85 597.214 175.796L642.134 130.876C642.15 130.86 642.159 130.838 642.159 130.815V109.786C642.159 109.738 642.121 109.699 642.073 109.699H616.378C616.355 109.699 616.333 109.708 616.317 109.725L616.298 109.743C616.264 109.777 616.209 109.777 616.175 109.743L594.975 88.5446C594.968 88.5367 594.968 88.5239 594.975 88.516L594.988 88.5039C594.996 88.4956 594.99 88.4814 594.978 88.4814C594.971 88.4814 594.965 88.4755 594.965 88.4683V50.4674C594.965 50.4196 595.004 50.3809 595.052 50.3809H613.929C613.977 50.3809 614.016 50.4196 614.016 50.4674V80.6067ZM661.21 51.4182C661.21 51.4412 661.201 51.4632 661.185 51.4795L642.307 70.3571C642.253 70.4116 642.159 70.373 642.159 70.2958V50.4674C642.159 50.4196 642.198 50.3809 642.246 50.3809H661.124C661.171 50.3809 661.21 50.4196 661.21 50.4674V51.4182ZM470.912 157.106C470.912 157.106 470.912 157.106 470.912 157.106H446.511C446.488 157.106 446.466 157.096 446.449 157.08L435.93 146.56C435.896 146.527 435.841 146.527 435.807 146.56L422.422 159.946C422.421 159.946 422.421 159.946 422.421 159.946C422.42 159.946 422.42 159.946 422.42 159.946L398.954 184.264C398.887 184.334 398.967 184.446 399.054 184.403C409.146 179.433 421.581 174.692 438.637 176.18C438.644 176.181 438.647 176.173 438.643 176.168C438.639 176.164 438.642 176.156 438.648 176.156H478.621C478.668 176.156 478.707 176.118 478.707 176.07V164.9C478.707 164.9 478.707 164.899 478.707 164.899C478.708 164.899 478.708 164.899 478.708 164.899L470.915 157.106C470.914 157.106 470.914 157.106 470.914 157.106L470.913 157.107C470.913 157.107 470.912 157.107 470.912 157.106ZM478.917 63.3693C478.918 63.3688 478.917 63.3679 478.917 63.3676C478.916 63.3674 478.916 63.367 478.916 63.3666V52.198C478.916 52.1502 478.877 52.1114 478.83 52.1114H438.741C438.693 52.1114 438.654 52.1502 438.654 52.198V52.2132C438.654 52.2362 438.645 52.2582 438.629 52.2745L414.622 76.2817C414.56 76.3431 414.456 76.2854 414.475 76.2005C415.9 69.5363 414.485 62.8253 413.553 60.7738C412.471 58.393 406.628 47.7894 367.251 46.9194C367.235 46.919 367.218 46.914 367.204 46.9049L360.157 42.2065C360.116 42.1791 360.061 42.1899 360.036 42.2325C358.795 44.3357 356.778 49.1876 354.453 57.2516C354.441 57.2934 354.461 57.3379 354.501 57.3554C359.192 59.4112 366.36 64.1631 370.475 67.085C370.524 67.1204 370.593 67.0927 370.608 67.0334C371.153 64.8287 371.695 63.2722 372.204 62.7236C375.018 59.6928 397.1 62.7236 400.78 70.7335C402.606 74.7074 393.703 81.7729 383.612 88.099C383.577 88.121 383.562 88.1647 383.577 88.2034C385.011 91.8835 386.862 96.591 387.138 97.1427C387.302 97.4718 388.613 97.7162 390.231 97.8899C390.251 97.892 390.27 97.8874 390.287 97.8768C398.901 92.3682 407.479 86.4531 411.44 82.3198C411.474 82.2846 411.528 82.2852 411.563 82.3196L413.948 84.7052C413.965 84.7214 413.974 84.7435 413.974 84.7664V135.45C413.974 135.453 413.972 135.456 413.968 135.456C413.965 135.457 413.963 135.459 413.963 135.463V154.96C413.963 155.037 414.056 155.076 414.111 155.021L433.025 136.108C433.025 136.107 433.025 136.106 433.024 136.106C433.024 136.106 433.024 136.105 433.024 136.105V84.8582C433.024 84.8352 433.033 84.8132 433.049 84.797L446.658 71.1876C446.675 71.1713 446.697 71.1622 446.72 71.1622H471.125C471.126 71.1622 471.127 71.1613 471.127 71.1601C471.127 71.1596 471.127 71.159 471.128 71.1587L478.917 63.3693ZM167.527 159.704L190.187 78.7745C190.21 78.6942 190.119 78.6297 190.053 78.6807C180.728 85.8844 165.808 95.7145 179.218 78.5222C196.103 56.8738 227.927 47.7813 245.245 50.3791C262.564 52.9769 278.368 63.3682 276.852 87.398C275.642 106.593 248.143 138.465 234.483 152.066C234.448 152.1 234.394 152.097 234.36 152.061L221.501 138.126C221.466 138.088 221.471 138.029 221.512 137.998L224.899 135.458L227.92 133.514C227.924 133.511 227.929 133.507 227.933 133.504L232.468 129.184C232.471 129.181 232.474 129.178 232.477 129.175C245.611 112.287 268.105 76.6164 253.039 68.9969C237.993 61.3874 214.787 70.8463 205.021 76.5496C204.994 76.5651 204.979 76.591 204.979 76.6218C204.965 80.4128 203.25 89.1385 200.713 99.9728C200.705 100.008 200.676 100.035 200.639 100.039C196.084 100.572 190.546 101.788 190.144 104.068C189.676 106.718 194.083 111.904 197.02 114.861C197.042 114.882 197.05 114.913 197.042 114.943C196.357 117.639 195.65 120.379 194.931 123.132C194.918 123.178 194.87 123.206 194.823 123.193C192.555 122.566 190.258 122.196 190.142 123.118C189.972 124.481 191.604 129.169 192.481 131.45C192.5 131.499 192.564 131.506 192.595 131.464C192.639 131.405 192.731 131.45 192.712 131.521C189.33 144.172 185.896 156.429 183.352 165.258C183.34 165.301 183.362 165.345 183.404 165.362L184.386 165.755C184.404 165.762 184.422 165.763 184.44 165.758C190.128 164.188 200.393 155.398 204.901 151.119C204.942 151.08 205.006 151.092 205.034 151.141L215.98 170.458C216.003 170.498 215.99 170.548 215.952 170.573C193.687 185.47 176.18 187.84 169.692 181.352C164.496 176.157 166.084 164.755 167.527 159.704ZM224.52 162.909C224.487 162.933 224.441 162.932 224.41 162.904L208.734 148.946C208.695 148.911 208.695 148.849 208.735 148.815L215.877 142.723C215.933 142.676 216.028 142.713 216.045 142.785C216.379 144.179 220.04 148.526 223.359 152.467C226.424 156.107 229.198 159.4 228.793 159.704L224.52 162.909ZM239.487 161.646C239.41 161.649 239.367 161.566 239.421 161.511C242.868 158.006 259.829 151.102 268.032 148.033C268.061 148.022 268.081 147.997 268.086 147.966C268.61 144.674 269.142 141.552 269.672 138.58C269.684 138.512 269.766 138.485 269.816 138.532C272.477 141.037 274.913 144.288 276.077 146.057C276.082 146.064 276.087 146.07 276.093 146.075C278.666 148.3 282.718 149.72 284.476 150.167C284.508 150.175 284.531 150.2 284.538 150.232C285.08 152.643 287.487 155.521 288.635 156.67C288.638 156.673 288.642 156.676 288.645 156.679C290.824 158.262 292.634 159.072 293.947 159.448C293.962 159.452 293.976 159.461 293.986 159.472L298.036 163.891C298.087 163.946 298.052 164.036 297.977 164.036C292.06 164.051 280.092 164.759 278.036 167.499C275.988 170.23 268.167 172.905 264.348 173.949C264.279 173.968 264.222 173.897 264.248 173.83C265.881 169.742 264.901 165.633 264.189 164.053C264.184 164.041 264.177 164.032 264.167 164.024C261.048 161.462 246.553 161.368 239.487 161.646ZM282.585 136.552C282.58 136.545 282.575 136.539 282.568 136.534C279.682 134.177 274.738 132.216 271.143 131.037C271.102 131.023 271.078 130.981 271.086 130.938C271.718 127.627 272.336 124.509 272.923 121.544L272.926 121.533C273.132 120.492 273.334 119.471 273.532 118.467C273.544 118.405 273.616 118.376 273.668 118.413C280.078 123.018 284.918 128.554 287.716 132.417C287.731 132.436 287.736 132.46 287.731 132.484C287.232 134.945 286.73 137.403 286.25 139.736C286.242 139.776 286.206 139.805 286.165 139.805C284.888 139.807 283.877 139.696 283.877 139.356C283.877 138.667 283.02 137.207 282.585 136.552ZM284.96 114.677C284.58 113.79 279.933 109.764 275.826 106.337C275.803 106.317 275.791 106.286 275.796 106.256C278.358 90.744 278.628 78.3104 272.864 59.9819C272.851 59.9396 272.872 59.8933 272.912 59.8757C296.713 49.5422 324.396 44.8575 333.149 44.7537C333.2 44.7531 333.235 44.7975 333.23 44.8488C332.156 54.9392 323.574 64.5045 320.549 67.827C320.508 67.872 320.436 67.8606 320.4 67.8113C319.952 67.1945 317.016 64.2019 304.015 67.9166C293.407 70.9474 293.407 78.5244 293.407 78.5244L292.023 90.4287C292.019 90.4604 291.998 90.4876 291.968 90.4989C290.716 90.9718 288.986 90.8692 286.843 89.2483C286.783 89.2035 286.697 89.2462 286.702 89.3204C286.867 92.0509 287.55 97.2834 289.072 97.791C289.747 98.0158 290.581 97.6812 291.392 97.124C291.402 97.1169 291.414 97.112 291.427 97.1099C323.138 91.6108 330.786 94.4039 330.642 96.4925C331.075 104.502 322.416 112.079 318.952 113.595C316.312 114.75 314.379 114.162 313.641 113.668C313.591 113.634 313.595 113.561 313.646 113.529C316.646 111.62 318.393 107.299 318.925 105.256C318.94 105.202 318.899 105.151 318.843 105.15C308.693 105.003 296.742 108.232 291.954 109.893C291.916 109.906 291.895 109.942 291.895 109.982C291.911 110.667 291.394 113.706 290.604 117.901C290.593 117.957 290.532 117.989 290.48 117.964C289.589 117.533 288.744 117.17 288.64 117.275C288.484 117.431 288.315 118.54 288.231 119.232C288.222 119.308 288.125 119.337 288.077 119.277C287.168 118.126 285.455 115.832 284.96 114.677ZM298.165 153.211C296.312 150.595 295.391 148.241 294.981 146.55C294.969 146.501 295.002 146.453 295.052 146.446L300.284 145.665C300.313 145.66 300.342 145.671 300.362 145.693C303.557 149.394 308.016 154.559 310.564 157.512C310.611 157.567 310.572 157.652 310.499 157.654C308.37 157.706 306.311 157.793 304.373 157.9C304.359 157.901 304.344 157.898 304.331 157.892C301.932 156.762 299.584 155.214 298.165 153.211ZM319.77 157.667C319.741 157.667 319.715 157.652 319.699 157.627C317.121 153.525 313.355 147.443 311.463 144.113C311.433 144.06 311.466 143.996 311.526 143.987L313.524 143.689C313.535 143.687 313.545 143.687 313.555 143.689C318.404 144.739 328.072 144.778 337.047 144.485C337.086 144.484 337.12 144.456 337.128 144.417L342.964 117.345C342.973 117.305 342.952 117.264 342.915 117.248L335.312 113.869C335.253 113.843 335.242 113.765 335.291 113.723L344.902 105.608C344.918 105.594 344.929 105.574 344.932 105.553C345.158 103.89 345.387 102.263 345.619 100.671C345.621 100.654 345.628 100.639 345.64 100.626C346.579 99.5718 347.607 98.4342 348.307 97.6634C348.347 97.6199 348.416 97.6253 348.445 97.6762C350.994 102.114 356.321 111.049 357.696 112.08C359.052 113.097 360.657 112.538 361.334 112.108C361.36 112.091 361.374 112.06 361.372 112.029C360.156 97.9199 354.568 88.6358 351.887 85.7084C351.864 85.6833 351.83 85.676 351.798 85.6859C351.126 85.8914 349.759 85.9833 349.253 84.8031C349.03 84.284 348.959 82.6613 348.967 80.7034C348.967 80.6981 348.967 80.6926 348.968 80.6874C349.729 76.7342 350.495 73.1056 351.251 69.7889C351.263 69.7333 351.324 69.7044 351.374 69.7313C355.594 71.9908 361.668 76.4055 365.47 83.0375C365.482 83.0589 365.485 83.0846 365.477 83.1079L365.088 84.2754C365.071 84.3254 365.103 84.3785 365.154 84.388L367.408 84.7977C367.427 84.8012 367.445 84.8111 367.457 84.8258L367.502 84.8763C367.518 84.8951 367.526 84.9202 367.522 84.9451C366.871 89.7186 366.319 94.3646 365.943 97.8539C365.935 97.922 366.006 97.9705 366.067 97.9398C368.499 96.7211 371.354 95.2208 374.366 93.5456C374.404 93.5243 374.453 93.535 374.479 93.5704C376.624 96.5285 378.34 99.3126 378.473 100.755C378.477 100.795 378.506 100.828 378.546 100.834C379.436 100.984 381.171 101.304 381.509 101.472C381.679 101.558 381.438 102.483 381.063 103.616C381.057 103.635 381.044 103.652 381.026 103.663C378.067 105.476 375.331 107.125 373.049 108.499C372.981 108.54 373.001 108.644 373.08 108.66C377.611 109.533 380.079 111.065 384.977 115.111C402.369 132.326 405.455 136.738 410.097 143.374L410.097 143.374L410.098 143.375L410.1 143.378C411.115 144.83 412.205 146.388 413.536 148.211C413.547 148.226 413.553 148.243 413.553 148.262V154.726C413.553 154.749 413.544 154.771 413.528 154.787L408.044 160.271C408.006 160.309 407.944 160.305 407.913 160.261C403.326 153.775 395.666 143.483 389.956 137.626C383.229 130.726 367.784 123.684 360.816 120.989C360.768 120.971 360.718 120.998 360.704 121.047L351.225 153.363C351.214 153.402 351.231 153.443 351.266 153.463L353.069 154.465C353.114 154.49 353.128 154.548 353.098 154.591L342.979 168.8C341.247 171.037 337.567 175.034 336.701 173.129C336.009 171.608 335.548 163.632 335.317 157.542C335.314 157.475 335.24 157.437 335.184 157.473L333.051 158.822C333.033 158.834 333.012 158.838 332.991 158.835C328.871 158.159 324.321 157.805 319.77 157.667ZM589.325 50.4668C589.325 50.4189 589.287 50.3802 589.239 50.3802H579.815C579.744 50.3802 579.703 50.2993 579.746 50.2421L594.36 30.4417C594.42 30.3598 594.314 30.2588 594.235 30.3231L569.646 50.3607C569.631 50.3733 569.611 50.3802 569.591 50.3802H512.776C512.728 50.3802 512.69 50.4189 512.69 50.4668V69.3443C512.69 69.3922 512.728 69.4309 512.776 69.4309H541.608C541.656 69.4309 541.695 69.4697 541.695 69.5175V90.3733C541.695 90.4527 541.792 90.4902 541.845 90.4313L560.743 69.4427C560.745 69.4414 560.745 69.4397 560.745 69.438C560.745 69.4341 560.748 69.4309 560.752 69.4309H573.953C574.027 69.4309 574.067 69.5193 574.017 69.5751L560.77 84.4602C560.761 84.4698 560.745 84.4638 560.745 84.451C560.745 84.4381 560.729 84.4321 560.721 84.4417L541.716 105.796C541.702 105.812 541.695 105.832 541.695 105.854V105.862C541.695 105.883 541.687 105.904 541.673 105.919L514.421 136.541L528.583 122.379C529.587 121.475 530.516 120.632 531.374 119.853L531.423 119.809C536.835 114.897 539.46 112.515 540.732 113.096C541.235 113.326 541.526 114.022 541.695 115.209V175.856C541.695 175.904 541.733 175.943 541.781 175.943H560.659C560.707 175.943 560.745 175.904 560.745 175.856V103.197C560.745 103.194 560.749 103.193 560.751 103.195C560.753 103.196 560.756 103.195 560.756 103.192L560.754 103.086C560.751 102.881 560.748 102.679 560.745 102.48V96.7932C560.876 91.9327 561.515 89.8327 563.616 87.347L569.259 81.7034L569.409 81.5566C569.41 81.5561 569.409 81.5551 569.409 81.5556C569.408 81.5561 569.407 81.5552 569.408 81.5546L581.532 69.4302C581.533 69.4296 581.534 69.4297 581.534 69.4305C581.535 69.4312 581.536 69.4313 581.537 69.4307L589.327 61.6411C589.328 61.64 589.328 61.6383 589.327 61.6376C589.326 61.6372 589.325 61.6365 589.325 61.6357V50.4668Z" fill="white"/>
</svg>
